HIERARCHY
ROOT Hips
{
  OFFSET -125.086 92.215 135.881
  CHANNELS 6 Xposition Yposition Zposition Zrotation Xrotation Yrotation
  JOINT LeftUpLeg
  {
    OFFSET 8.64259 1.95398 -2.38835
    CHANNELS 3 Zrotation Xrotation Yrotation
    JOINT LeftLeg
    {
      OFFSET 43.7702 0 0
      CHANNELS 3 Zrotation Xrotation Yrotation
      JOINT LeftFoot
      {
        OFFSET 40.6238 0 0
        CHANNELS 3 Zrotation Xrotation Yrotation
        JOINT LeftToeBase
        {
          OFFSET 12.7242 0 0
          CHANNELS 3 Zrotation Xrotation Yrotation
          End Site
          {
            OFFSET 0 0 0
          }
        }
      }
    }
  }
  JOINT RightUpLeg
  {
    OFFSET -8.2249 1.95398 -2.59336
    CHANNELS 3 Zrotation Xrotation Yrotation
    JOINT RightLeg
    {
      OFFSET 43.5653 0 0
      CHANNELS 3 Zrotation Xrotation Yrotation
      JOINT RightFoot
      {
        OFFSET 40.6238 0 0
        CHANNELS 3 Zrotation Xrotation Yrotation
        JOINT RightToeBase
        {
          OFFSET 12.7242 0 0
          CHANNELS 3 Zrotation Xrotation Yrotation
          End Site
          {
            OFFSET 0 0 0
          }
        }
      }
    }
  }
  JOINT Spine
  {
    OFFSET 0.165834 0.87714 6.61349
    CHANNELS 3 Zrotation Xrotation Yrotation
    JOINT Spine1
    {
      OFFSET 7.38963 1.71661e-005 0
      CHANNELS 3 Zrotation Xrotation Yrotation
      JOINT Spine2
      {
        OFFSET 11.9445 1.14441e-005 0
        CHANNELS 3 Zrotation Xrotation Yrotation
        JOINT Spine3
        {
          OFFSET 14.7254 4.19617e-005 0
          CHANNELS 3 Zrotation Xrotation Yrotation
          JOINT Spine4
          {
            OFFSET 10.9679 0 0
            CHANNELS 3 Zrotation Xrotation Yrotation
            JOINT RightShoulder
            {
              OFFSET 2.46616 -1.6653 3.69651
              CHANNELS 3 Zrotation Xrotation Yrotation
              JOINT RightArm
              {
                OFFSET 13.0012 0 0
                CHANNELS 3 Zrotation Xrotation Yrotation
                JOINT RightForeArm
                {
                  OFFSET 28.7848 1.52588e-005 0
                  CHANNELS 3 Zrotation Xrotation Yrotation
                  JOINT RightHand
                  {
                    OFFSET 26.5688 1.52588e-005 0
                    CHANNELS 3 Zrotation Xrotation Yrotation
                    End Site
                    {
                      OFFSET 0 0 0
                    }
                  }
                }
              }
            }
            JOINT LeftShoulder
            {
              OFFSET 2.38034 -1.29275 -3.7523
              CHANNELS 3 Zrotation Xrotation Yrotation
              JOINT LeftArm
              {
                OFFSET 16.3182 6.10352e-005 0
                CHANNELS 3 Zrotation Xrotation Yrotation
                JOINT LeftForeArm
                {
                  OFFSET 27.0901 0 0
                  CHANNELS 3 Zrotation Xrotation Yrotation
                  JOINT LeftHand
                  {
                    OFFSET 24.5451 1.52588e-005 0
                    CHANNELS 3 Zrotation Xrotation Yrotation
                    End Site
                    {
                      OFFSET 0 0 0
                    }
                  }
                }
              }
            }
            JOINT Neck
            {
              OFFSET 5.0226 -0.0266342 0
              CHANNELS 3 Zrotation Xrotation Yrotation
              JOINT Head
              {
                OFFSET 6.69363 2.86102e-005 0
                CHANNELS 3 Zrotation Xrotation Yrotation
                End Site
                {
                  OFFSET 0 0 0
                }
              }
            }
          }
        }
      }
    }
  }
}
MOTION
Frames:	6
Frame Time:	0.0416667
-23.6259 88.9364 28.4806 94.8486 53.2729 85.835 178.165 40.4116 86.4016 -71.0045 16.6046 3.79064 49.3271 -1.39945 3.03258 51.2505 -1.13878 9.47157 172.679 20.5694 90.9559 -60.1102 -13.2443 0.499703 65.6795 -3.28059 8.19135 60.0298 -4.41222 2.07964 0.155943 10.505 -90.0048 5.86254 0.309536 -0.0186964 -5.80835 0.308435 -0.0323079 -28.3438 0.300852 0.0752076 -8.33113 0.30086 0.0752029 109.044 -50.6275 -71.5323 22.9802 -11.367 -13.5476 -6.40114 -9.59494 -51.4306 -9.26889 0.0706657 -6.37698 -78.7593 -49.6848 95.472 -25.8627 -7.61208 -11.6856 3.88793 28.3597 -14.164 5.71338 -0.625932 -11.9874 15.2231 8.33281 -22.2897 -21.0461 7.89556 41.3105 
-37.1891 88.4857 43.431 92.1569 57.7457 90.0727 174.831 35.5529 92.5387 -92.8889 13.8076 5.23123 51.2555 1.45809 10.7757 48.0175 -1.27249 6.88235 171.733 31.7743 92.9672 -53.3486 -14.7564 3.52227 67.1518 -6.79376 -4.12903 41.3359 -1.96157 -0.58822 -0.256183 10.3177 -90.2701 6.23687 -0.625955 -0.510869 -5.43401 -0.647835 -0.482836 -27.9691 -0.443485 -0.675375 -7.95642 -0.443489 -0.675386 109.45 -52.7055 -71.191 25.2951 -6.70719 -6.93154 -13.7629 -24.7859 -42.4426 -10.4106 -0.273046 -2.22392 -78.5504 -49.0671 95.7824 -24.2819 -5.52557 -25.4843 6.71353 19.321 -24.971 11.3208 -1.06427 -12.4666 14.7032 13.64 -26.461 -29.8264 8.37343 50.8076 
-52.5811 92.7445 58.3921 85.8719 57.3246 93.3647 175.638 25.761 90.5483 -79.0891 16.8451 6.36495 54.4597 2.45066 8.70633 50.9326 -1.64191 2.82509 176.796 34.8031 86.1896 -24.8688 -12.8574 1.27626 41.7611 7.7956 17.3852 36.2119 -1.20667 -3.00459 -0.506427 10.2589 -89.8223 6.36038 -0.936319 0.379752 -5.31033 -0.918665 0.420584 -27.8482 -1.00716 0.0807703 -7.83554 -1.00716 0.0807658 108.103 -51.2668 -73.0614 29.9542 -11.7667 -0.379937 -4.07406 -17.1239 -36.6626 -7.07533 -0.0475078 -4.62888 -79.0622 -48.4871 94.9818 -19.3081 -4.24738 -32.4924 13.2661 13.9984 -50.9285 11.608 -1.27086 -13.9379 16.9474 20.0126 -31.5483 -39.5377 7.13601 63.4224 
-67.9209 93.3215 72.0186 83.4393 50.3317 94.7843 178.425 20.2299 87.6622 -60.2067 21.936 5.96672 53.3879 -0.20738 2.39758 58.9435 -2.71098 0.208546 174.421 39.1126 86.1422 -40.3835 -14.1082 1.17615 40.3406 7.28766 16.7341 59.5839 -5.77605 -5.69211 0.142953 10.1296 -89.5527 6.60991 0.47594 0.86368 -5.06125 0.51348 0.8419 -27.5938 0.194392 0.966775 -7.58115 0.194393 0.966776 105.385 -47.9564 -77.0068 31.9054 -13.0631 -3.20051 -1.02319 -15.4224 -33.2707 -9.29124 -0.0267813 -5.18471 -78.7731 -48.9576 95.4403 -17.5565 -2.21643 -30.7506 15.7508 10.4561 -64.6394 16.3745 -1.54913 -13.233 13.3541 27.104 -31.1126 -44.5441 6.04763 71.1819 
-82.8205 88.6095 85.3486 86.8109 47.5554 93.7544 178.259 24.9404 85.8947 -59.8221 25.8807 6.03361 64.5317 9.27456 15.9152 58.4677 -1.91103 5.42823 173.539 38.3183 86.0166 -85.5483 -16.044 -2.30949 47.1791 4.29659 15.7713 58.0409 -4.62187 -0.269094 0.595361 9.91794 -89.746 7.03493 1.29805 0.445015 -4.6354 1.31636 0.387442 -27.1742 1.10428 0.81459 -7.1615 1.10427 0.814585 104.128 -44.2284 -78.8665 33.2708 -10.6634 -6.32902 -0.829497 -10.702 -36.8266 -10.8727 -0.181244 -3.37357 -76.5514 -52.167 98.7869 -22.8927 -3.87158 -23.6057 13.609 18.7178 -43.9024 12.3962 -1.31972 -13.9962 6.51525 32.3717 -27.3472 -46.2674 5.96497 74.0272 
-96.621 88.1113 98.1812 88.9051 46.3791 90.7943 176.649 31.1237 83.754 -50.1267 25.0572 5.74532 62.5211 8.39073 23.1595 48.3139 -1.54117 2.18803 176.996 22.0236 85.6886 -88.9528 -25.2491 -4.29889 50.121 3.56438 13.6215 65.4436 -5.28372 2.03065 1.09902 9.87637 -89.5813 7.11331 2.37485 0.719834 -4.55561 2.40425 0.614554 -27.1029 2.04871 1.40053 -7.09026 2.04871 1.40052 104.159 -42.9844 -78.7556 31.3006 -12.5568 -10.2968 -0.591337 -9.90555 -39.071 -11.4181 -0.0450355 -4.90455 -74.2145 -56.1185 102.026 -21.9692 -8.57006 -14.7246 6.35765 32.3638 -17.9441 9.69771 -0.859404 -11.6329 3.06877 32.1776 -23.623 -45.1934 6.13442 72.2484 
